<svg xmlns="http://www.w3.org/2000/svg" viewBox="0 0 24 24" fill="currentColor"><path d="M12 .5C5.65.5.5 5.66.5 12c0 5.09 3.29 9.4 7.86 10.93.57.1.78-.25.78-.55 0-.27-.01-1-.02-1.96-3.2.7-3.88-1.54-3.88-1.54-.52-1.32-1.28-1.67-1.28-1.67-1.05-.72.08-.71.08-.71 1.16.08 1.77 1.19 1.77 1.19 1.03 1.76 2.7 1.25 3.36.96.1-.75.4-1.25.72-1.54-2.56-.29-5.25-1.28-5.25-5.72 0-1.26.45-2.28 1.19-3.09-.12-.3-.52-1.52.11-3.17 0 0 .97-.31 3.18 1.18a11.03 11.03 0 0 1 2.9-.39c.98 0 1.97.13 2.9.39 2.2-1.49 3.17-1.18 3.17-1.18.63 1.65.23 2.87.11 3.17.74.81 1.19 1.83 1.19 3.09 0 4.45-2.69 5.42-5.26 5.71.41.35.77 1.04.77 2.1 0 1.52-.02 2.75-.02 3.12 0 .3.21.66.79.55C20.71 21.4 24 17.09 24 12 24 5.66 18.35.5 12 .5z"/></svg>