<svg xmlns="http://www.w3.org/2000/svg" viewBox="0 0 24 24" fill="currentColor"><path d="M22.46 6c-.77.35-1.6.58-2.46.69a4.3 4.3 0 0 0 1.88-2.37c-.84.5-1.77.86-2.76 1.06A4.28 4.28 0 0 0 12 8.64c0 .34.04.67.12.99-3.56-.18-6.72-1.88-8.84-4.47-.37.64-.58 1.38-.58 2.18 0 1.5.76 2.82 1.93 3.59-.7-.02-1.36-.22-1.94-.53v.05c0 2.1 1.5 3.86 3.49 4.26-.36.1-.74.15-1.13.15-.28 0-.55-.03-.82-.08.55 1.72 2.14 2.97 4.03 3.01A8.6 8.6 0 0 1 2 19.54 12.1 12.1 0 0 0 8.29 21c7.55 0 11.68-6.26 11.68-11.68v-.53c.8-.58 1.5-1.3 2.06-2.12-.74.33-1.54.56-2.38.66z"/></svg>